<svg width="100%" viewBox="0 0 680 980" xmlns="http://www.w3.org/2000/svg">
<title>S-008 設定画面</title>
<desc>AIプロバイダー設定(3社APIキー,モデル名)とデータ管理(エクスポート/インポート=上書き固定/削除)。デフォルトモデル: Anthropic=claude-opus-4-6 / OpenAI=gpt-4o / OpenRouter=ユーザー指定。</desc>
<style>text{font-family:-apple-system,sans-serif}.th{font-size:14px;font-weight:500;fill:#1A1A1A}.ts{font-size:12px;fill:#888880}</style>
<rect x="140" y="20" width="400" height="920" rx="24" fill="#FFF" stroke="#CCC" stroke-width="1"/>
<text class="ts" x="170" y="48">9:41</text><text class="ts" x="500" y="48" text-anchor="end">100%</text>
<text x="340" y="80" text-anchor="middle" font-size="16" font-weight="500" fill="#1A1A1A" font-family="-apple-system,sans-serif">設定</text>
<text x="175" y="110" font-size="14" font-weight="500" fill="#1A1A1A" font-family="-apple-system,sans-serif">AIプロバイダー設定</text>
<line x1="175" y1="118" x2="505" y2="118" stroke="#CCC" stroke-width="0.5"/>
<text class="ts" x="175" y="140">デフォルトプロバイダー</text>
<rect x="175" y="148" width="330" height="30" rx="6" fill="none" stroke="#B4B2A9" stroke-width="0.5"/>
<text class="ts" x="190" y="167">Anthropic (Claude)  v</text>
<text class="ts" x="175" y="200">Anthropic API キー</text>
<rect x="175" y="208" width="280" height="30" rx="6" fill="none" stroke="#B4B2A9" stroke-width="0.5"/>
<text class="ts" x="190" y="227">sk-ant-************</text>
<rect x="462" y="210" width="40" height="26" rx="4" fill="#F1EFE8" stroke="#D3D1C7" stroke-width="0.5"/>
<text x="482" y="227" text-anchor="middle" font-size="11" fill="#5F5E5A" font-family="-apple-system,sans-serif">表示</text>
<text class="ts" x="175" y="260">OpenAI API キー</text>
<rect x="175" y="268" width="280" height="30" rx="6" fill="none" stroke="#B4B2A9" stroke-width="0.5"/>
<text class="ts" x="190" y="287">sk-**************</text>
<rect x="462" y="270" width="40" height="26" rx="4" fill="#F1EFE8" stroke="#D3D1C7" stroke-width="0.5"/>
<text x="482" y="287" text-anchor="middle" font-size="11" fill="#5F5E5A" font-family="-apple-system,sans-serif">表示</text>
<text class="ts" x="175" y="320">OpenRouter API キー</text>
<rect x="175" y="328" width="280" height="30" rx="6" fill="none" stroke="#B4B2A9" stroke-width="0.5"/>
<text class="ts" x="190" y="347">sk-or-************</text>
<rect x="462" y="330" width="40" height="26" rx="4" fill="#F1EFE8" stroke="#D3D1C7" stroke-width="0.5"/>
<text x="482" y="347" text-anchor="middle" font-size="11" fill="#5F5E5A" font-family="-apple-system,sans-serif">表示</text>
<text class="ts" x="175" y="380">OpenRouter モデル名</text>
<rect x="175" y="388" width="330" height="30" rx="6" fill="none" stroke="#B4B2A9" stroke-width="0.5"/>
<text class="ts" x="190" y="407">google/gemini-2.5-pro</text>
<text x="175" y="450" font-size="14" font-weight="500" fill="#1A1A1A" font-family="-apple-system,sans-serif">データ管理</text>
<line x1="175" y1="458" x2="505" y2="458" stroke="#CCC" stroke-width="0.5"/>
<rect x="175" y="472" width="330" height="38" rx="8" fill="#E6F1FB" stroke="#185FA5" stroke-width="0.5"/>
<text x="340" y="495" text-anchor="middle" font-size="12" font-weight="500" fill="#0C447C" font-family="-apple-system,sans-serif">データをエクスポート（JSON）</text>
<rect x="175" y="522" width="330" height="38" rx="8" fill="#F1EFE8" stroke="#D3D1C7" stroke-width="0.5"/>
<text x="340" y="545" text-anchor="middle" font-size="12" fill="#5F5E5A" font-family="-apple-system,sans-serif">データをインポート（JSON・上書き）</text>
<rect x="175" y="572" width="330" height="38" rx="8" fill="#FCEBEB" stroke="#A32D2D" stroke-width="0.5"/>
<text x="340" y="595" text-anchor="middle" font-size="12" font-weight="500" fill="#791F1F" font-family="-apple-system,sans-serif">全データを削除</text>
<text class="ts" x="340" y="644" text-anchor="middle">AI Quiz Forge v1.0.0</text>
<rect x="140" y="868" width="400" height="72" fill="#111"/>
<line x1="140" y1="868" x2="540" y2="868" stroke="#222" stroke-width="1"/>
<path d="M225 892 L225 888 Q225 884,229 884 L241 884 Q245 884,245 888 L245 892 Z M222 894 L248 894 L248 910 Q248 914,244 914 L226 914 Q222 914,222 910 Z" fill="#666"/>
<text x="235" y="930" text-anchor="middle" font-size="11" fill="#666" font-family="-apple-system,sans-serif">ホーム</text>
<circle cx="340" cy="898" r="10" fill="none" stroke="#666" stroke-width="1.5"/>
<path d="M336 896 L340 892 L344 896 M336 902 L340 898 L344 902" fill="none" stroke="#666" stroke-width="1.2"/>
<text x="340" y="930" text-anchor="middle" font-size="11" fill="#666" font-family="-apple-system,sans-serif">履歴</text>
<circle cx="445" cy="900" r="10" fill="none" stroke="#00E5FF" stroke-width="1.5"/>
<circle cx="445" cy="900" r="3" fill="none" stroke="#00E5FF" stroke-width="1.2"/>
<text x="445" y="930" text-anchor="middle" font-size="11" fill="#00E5FF" font-family="-apple-system,sans-serif">設定</text>
<text x="340" y="972" text-anchor="middle" font-size="12" fill="#888880" font-family="-apple-system,sans-serif">S-008 設定画面</text>
</svg>
