<svg width="100%" viewBox="0 0 680 1360" xmlns="http://www.w3.org/2000/svg">
<title>S-003 問題管理（AI生成タブ）</title>
<desc>AI生成タブ。プロバイダー・テーマ・言語・問題数・選択肢数設定。Web検索は常時ON（失敗時はバナー表示）。結果画面風アコーディオンプレビュー。プレビューの「編集」はS-003bへ遷移、保存でプレビュー配列へ反映。</desc>
<style>text{font-family:-apple-system,sans-serif}.th{font-size:14px;font-weight:500;fill:#1A1A1A}.ts{font-size:12px;fill:#888880}</style>
<rect x="140" y="20" width="400" height="1300" rx="24" fill="#FFF" stroke="#CCC" stroke-width="1"/>
<text class="ts" x="170" y="48">9:41</text><text class="ts" x="500" y="48" text-anchor="end">100%</text>
<text class="ts" x="175" y="76">← 戻る</text>
<text x="340" y="76" text-anchor="middle" font-size="14" font-weight="500" fill="#1A1A1A" font-family="-apple-system,sans-serif">AWS SAA 模擬試験</text>
<text class="ts" x="340" y="92" text-anchor="middle">5問登録済み</text>
<rect x="175" y="104" width="160" height="32" rx="6" fill="#F1EFE8" stroke="#D3D1C7" stroke-width="0.5"/>
<text x="255" y="124" text-anchor="middle" font-size="12" fill="#5F5E5A" font-family="-apple-system,sans-serif">手動作成</text>
<rect x="345" y="104" width="160" height="32" rx="6" fill="#185FA5"/>
<text x="425" y="124" text-anchor="middle" font-size="12" font-weight="500" fill="#FFF" font-family="-apple-system,sans-serif">AI生成</text>
<text class="ts" x="175" y="160">AIプロバイダー</text>
<rect x="175" y="168" width="330" height="30" rx="6" fill="none" stroke="#B4B2A9" stroke-width="0.5"/>
<text class="ts" x="190" y="187">Anthropic (Claude)  v</text>
<text class="ts" x="175" y="218">テーマ / 資格名 *</text>
<rect x="175" y="226" width="330" height="30" rx="6" fill="none" stroke="#B4B2A9" stroke-width="0.5"/>
<text class="ts" x="190" y="245">AWS Solutions Architect Associate</text>
<text class="ts" x="175" y="276">出題範囲 / 詳細指示（任意）</text>
<rect x="175" y="284" width="330" height="48" rx="6" fill="none" stroke="#B4B2A9" stroke-width="0.5"/>
<text class="ts" x="190" y="306">S3, EC2, VPC中心にシナリオ問題</text>
<text class="ts" x="175" y="354">出題言語</text>
<rect x="175" y="362" width="330" height="30" rx="6" fill="none" stroke="#B4B2A9" stroke-width="0.5"/>
<text class="ts" x="190" y="381">日本語  v</text>
<text class="ts" x="175" y="414">問題数</text>
<rect x="175" y="422" width="82" height="30" rx="6" fill="#185FA5"/>
<text x="216" y="441" text-anchor="middle" font-size="12" font-weight="500" fill="#FFF" font-family="-apple-system,sans-serif">5</text>
<rect x="257" y="422" width="82" height="30" fill="none" stroke="#D3D1C7" stroke-width="0.5"/>
<text x="298" y="441" text-anchor="middle" font-size="12" fill="#5F5E5A" font-family="-apple-system,sans-serif">10</text>
<rect x="339" y="422" width="84" height="30" fill="none" stroke="#D3D1C7" stroke-width="0.5"/>
<text x="381" y="441" text-anchor="middle" font-size="12" fill="#5F5E5A" font-family="-apple-system,sans-serif">15</text>
<rect x="423" y="422" width="82" height="30" rx="6" fill="none" stroke="#D3D1C7" stroke-width="0.5"/>
<text x="464" y="441" text-anchor="middle" font-size="12" fill="#5F5E5A" font-family="-apple-system,sans-serif">20</text>
<text class="ts" x="175" y="476">選択肢数（2〜10）: 4</text>
<line x1="175" y1="490" x2="505" y2="490" stroke="#D3D1C7" stroke-width="2" stroke-linecap="round"/>
<circle cx="258" cy="490" r="6" fill="#FFF" stroke="#185FA5" stroke-width="1.5"/>
<text class="ts" x="175" y="520">複数正解を含める</text>
<rect x="468" y="508" width="36" height="20" rx="10" fill="#B4B2A9"/>
<circle cx="478" cy="518" r="7" fill="#FFF"/>
<text class="ts" x="340" y="554" text-anchor="middle">※ 設定は毎回変更できます / Web検索は常時ON</text>
<rect x="175" y="566" width="330" height="40" rx="8" fill="#E1F5EE" stroke="#0F6E56" stroke-width="0.5"/>
<text x="340" y="590" text-anchor="middle" font-size="13" font-weight="500" fill="#085041" font-family="-apple-system,sans-serif">AIで問題を生成</text>
<line x1="175" y1="626" x2="505" y2="626" stroke="#CCC" stroke-width="0.5"/>
<text x="175" y="650" font-size="14" font-weight="500" fill="#1A1A1A" font-family="-apple-system,sans-serif">生成プレビュー（5問）</text>
<rect x="175" y="664" width="330" height="34" rx="6" fill="#F8F8F6" stroke="#CCC" stroke-width="0.5"/>
<text class="ts" x="190" y="685">Q1: S3バケットのアクセス制...</text>
<text x="492" y="685" text-anchor="end" font-size="12" fill="#888780" font-family="-apple-system,sans-serif">^</text>
<rect x="175" y="702" width="330" height="208" rx="0" fill="#FFF" stroke="#CCC" stroke-width="0.5"/>
<text x="190" y="724" font-size="13" font-weight="500" fill="#1A1A1A" font-family="-apple-system,sans-serif">S3バケットのアクセス制御で最も</text>
<text x="190" y="740" font-size="13" font-weight="500" fill="#1A1A1A" font-family="-apple-system,sans-serif">適切な方法はどれですか？</text>
<text class="ts" x="190" y="762">選択肢:</text>
<rect x="190" y="770" width="300" height="22" rx="3" fill="#EAF3DE" stroke="#3B6D11" stroke-width="0.5"/>
<text x="204" y="785" font-size="12" fill="#27500A" font-family="-apple-system,sans-serif">  バケットポリシー（正解）</text>
<text x="204" y="808" font-size="12" fill="#888780" font-family="-apple-system,sans-serif">  セキュリティグループ</text>
<text x="204" y="828" font-size="12" fill="#888780" font-family="-apple-system,sans-serif">  NACL</text>
<text x="204" y="848" font-size="12" fill="#888780" font-family="-apple-system,sans-serif">  WAF</text>
<rect x="350" y="868" width="38" height="20" rx="4" fill="#E6F1FB" stroke="#185FA5" stroke-width="0.5"/>
<text x="369" y="882" text-anchor="middle" font-size="11" fill="#0C447C" font-family="-apple-system,sans-serif">編集</text>
<rect x="396" y="868" width="38" height="20" rx="4" fill="#FCEBEB" stroke="#A32D2D" stroke-width="0.5"/>
<text x="415" y="882" text-anchor="middle" font-size="11" fill="#791F1F" font-family="-apple-system,sans-serif">破棄</text>
<rect x="175" y="902" width="330" height="34" rx="6" fill="#F8F8F6" stroke="#CCC" stroke-width="0.5"/>
<text class="ts" x="190" y="923">Q2: EC2インスタンスのスケ...</text>
<text x="492" y="923" text-anchor="end" font-size="12" fill="#888780" font-family="-apple-system,sans-serif">v</text>
<rect x="175" y="944" width="330" height="34" rx="6" fill="#F8F8F6" stroke="#CCC" stroke-width="0.5"/>
<text class="ts" x="190" y="965">Q3: VPCのサブネット設計で...</text>
<text x="492" y="965" text-anchor="end" font-size="12" fill="#888780" font-family="-apple-system,sans-serif">v</text>
<text class="ts" x="340" y="1000" text-anchor="middle">... 残り2問</text>
<rect x="175" y="1016" width="330" height="40" rx="8" fill="#E6F1FB" stroke="#185FA5" stroke-width="0.5"/>
<text x="340" y="1040" text-anchor="middle" font-size="13" font-weight="500" fill="#0C447C" font-family="-apple-system,sans-serif">すべて登録（5問）</text>
<rect x="140" y="1248" width="400" height="72" fill="#111"/>
<line x1="140" y1="1248" x2="540" y2="1248" stroke="#222" stroke-width="1"/>
<path d="M225 1272 L225 1268 Q225 1264,229 1264 L241 1264 Q245 1264,245 1268 L245 1272 Z M222 1274 L248 1274 L248 1290 Q248 1294,244 1294 L226 1294 Q222 1294,222 1290 Z" fill="#00E5FF"/>
<text x="235" y="1310" text-anchor="middle" font-size="11" fill="#00E5FF" font-family="-apple-system,sans-serif">ホーム</text>
<circle cx="340" cy="1278" r="10" fill="none" stroke="#666" stroke-width="1.5"/>
<path d="M336 1276 L340 1272 L344 1276 M336 1282 L340 1278 L344 1282" fill="none" stroke="#666" stroke-width="1.2"/>
<text x="340" y="1310" text-anchor="middle" font-size="11" fill="#666" font-family="-apple-system,sans-serif">履歴</text>
<circle cx="445" cy="1280" r="10" fill="none" stroke="#666" stroke-width="1.5"/>
<circle cx="445" cy="1280" r="3" fill="none" stroke="#666" stroke-width="1.2"/>
<text x="445" y="1310" text-anchor="middle" font-size="11" fill="#666" font-family="-apple-system,sans-serif">設定</text>
<text x="340" y="1354" text-anchor="middle" font-size="12" fill="#888880" font-family="-apple-system,sans-serif">S-003 AI生成タブ</text>
</svg>
