<svg width="100%" viewBox="0 0 680 820" xmlns="http://www.w3.org/2000/svg">
<title>S-003b 問題編集画面</title>
<desc>問題文・選択肢テキスト・正解トグル・解説の編集。選択肢の追加・削除。isMultiSelectは正解ONの数から自動判定（明示トグルなし）。既存問題編集のほか、AI生成プレビュー編集からの遷移にも対応。</desc>
<style>text{font-family:-apple-system,sans-serif}.th{font-size:14px;font-weight:500;fill:#1A1A1A}.ts{font-size:12px;fill:#888880}</style>
<rect x="140" y="20" width="400" height="760" rx="24" fill="#FFF" stroke="#CCC" stroke-width="1"/>
<text class="ts" x="170" y="48">9:41</text><text class="ts" x="500" y="48" text-anchor="end">100%</text>
<text class="ts" x="175" y="76">← キャンセル</text>
<text x="340" y="76" text-anchor="middle" font-size="14" font-weight="500" fill="#1A1A1A" font-family="-apple-system,sans-serif">問題を編集</text>
<text class="ts" x="175" y="110">問題文 *</text>
<rect x="175" y="118" width="330" height="52" rx="6" fill="none" stroke="#B4B2A9" stroke-width="0.5"/>
<text class="ts" x="190" y="142">桶狭間の戦いで織田信長が</text>
<text class="ts" x="190" y="160">倒した武将は誰ですか？</text>
<text class="ts" x="175" y="192">選択肢</text><text class="ts" x="402" y="192" text-anchor="end">正解</text><text class="ts" x="464" y="192" text-anchor="end">削除</text>
<rect x="175" y="200" width="218" height="28" rx="4" fill="none" stroke="#B4B2A9" stroke-width="0.5"/>
<text class="ts" x="188" y="218">今川義元</text>
<rect x="400" y="201" width="38" height="26" rx="4" fill="#EAF3DE" stroke="#3B6D11" stroke-width="0.5"/>
<text x="419" y="218" text-anchor="middle" font-size="11" fill="#27500A" font-family="-apple-system,sans-serif">ON</text>
<rect x="446" y="201" width="26" height="26" rx="4" fill="#FCEBEB" stroke="#A32D2D" stroke-width="0.5"/>
<text x="459" y="218" text-anchor="middle" font-size="12" fill="#791F1F" font-family="-apple-system,sans-serif">x</text>
<rect x="175" y="236" width="218" height="28" rx="4" fill="none" stroke="#B4B2A9" stroke-width="0.5"/>
<text class="ts" x="188" y="254">武田信玄</text>
<rect x="400" y="237" width="38" height="26" rx="4" fill="#F1EFE8" stroke="#D3D1C7" stroke-width="0.5"/>
<text x="419" y="254" text-anchor="middle" font-size="11" fill="#888780" font-family="-apple-system,sans-serif">OFF</text>
<rect x="446" y="237" width="26" height="26" rx="4" fill="#FCEBEB" stroke="#A32D2D" stroke-width="0.5"/>
<text x="459" y="254" text-anchor="middle" font-size="12" fill="#791F1F" font-family="-apple-system,sans-serif">x</text>
<rect x="175" y="272" width="218" height="28" rx="4" fill="none" stroke="#B4B2A9" stroke-width="0.5"/>
<text class="ts" x="188" y="290">上杉謙信</text>
<rect x="400" y="273" width="38" height="26" rx="4" fill="#F1EFE8" stroke="#D3D1C7" stroke-width="0.5"/>
<text x="419" y="290" text-anchor="middle" font-size="11" fill="#888780" font-family="-apple-system,sans-serif">OFF</text>
<rect x="446" y="273" width="26" height="26" rx="4" fill="#FCEBEB" stroke="#A32D2D" stroke-width="0.5"/>
<text x="459" y="290" text-anchor="middle" font-size="12" fill="#791F1F" font-family="-apple-system,sans-serif">x</text>
<rect x="175" y="308" width="218" height="28" rx="4" fill="none" stroke="#B4B2A9" stroke-width="0.5"/>
<text class="ts" x="188" y="326">北条氏康</text>
<rect x="400" y="309" width="38" height="26" rx="4" fill="#F1EFE8" stroke="#D3D1C7" stroke-width="0.5"/>
<text x="419" y="326" text-anchor="middle" font-size="11" fill="#888780" font-family="-apple-system,sans-serif">OFF</text>
<rect x="446" y="309" width="26" height="26" rx="4" fill="#FCEBEB" stroke="#A32D2D" stroke-width="0.5"/>
<text x="459" y="326" text-anchor="middle" font-size="12" fill="#791F1F" font-family="-apple-system,sans-serif">x</text>
<text x="175" y="360" font-size="12" fill="#185FA5" font-family="-apple-system,sans-serif">+ 選択肢を追加</text>
<text class="ts" x="175" y="392">解説（任意）</text>
<rect x="175" y="400" width="330" height="52" rx="6" fill="none" stroke="#B4B2A9" stroke-width="0.5"/>
<text class="ts" x="190" y="424">1560年、桶狭間にて奇襲を</text>
<text class="ts" x="190" y="442">行い今川義元を討ち取った。</text>
<rect x="175" y="476" width="155" height="42" rx="8" fill="#E6F1FB" stroke="#185FA5" stroke-width="0.5"/>
<text x="252" y="501" text-anchor="middle" font-size="13" font-weight="500" fill="#0C447C" font-family="-apple-system,sans-serif">保存</text>
<rect x="350" y="476" width="155" height="42" rx="8" fill="#F1EFE8" stroke="#D3D1C7" stroke-width="0.5"/>
<text x="428" y="501" text-anchor="middle" font-size="13" fill="#5F5E5A" font-family="-apple-system,sans-serif">キャンセル</text>
<rect x="140" y="708" width="400" height="72" fill="#111"/>
<line x1="140" y1="708" x2="540" y2="708" stroke="#222" stroke-width="1"/>
<path d="M225 732 L225 728 Q225 724,229 724 L241 724 Q245 724,245 728 L245 732 Z M222 734 L248 734 L248 750 Q248 754,244 754 L226 754 Q222 754,222 750 Z" fill="#00E5FF"/>
<text x="235" y="770" text-anchor="middle" font-size="11" fill="#00E5FF" font-family="-apple-system,sans-serif">ホーム</text>
<circle cx="340" cy="738" r="10" fill="none" stroke="#666" stroke-width="1.5"/>
<path d="M336 736 L340 732 L344 736 M336 742 L340 738 L344 742" fill="none" stroke="#666" stroke-width="1.2"/>
<text x="340" y="770" text-anchor="middle" font-size="11" fill="#666" font-family="-apple-system,sans-serif">履歴</text>
<circle cx="445" cy="740" r="10" fill="none" stroke="#666" stroke-width="1.5"/>
<circle cx="445" cy="740" r="3" fill="none" stroke="#666" stroke-width="1.2"/>
<text x="445" y="770" text-anchor="middle" font-size="11" fill="#666" font-family="-apple-system,sans-serif">設定</text>
<text x="340" y="812" text-anchor="middle" font-size="12" fill="#888880" font-family="-apple-system,sans-serif">S-003b 問題編集画面</text>
</svg>
