<svg width="100%" viewBox="0 0 680 1160" xmlns="http://www.w3.org/2000/svg">
<title>S-006 結果画面</title>
<desc>正答率を大きく表示。各問アコーディオン(20文字+...)。展開で全選択肢箇条書き、正解=緑、不正解回答=赤。</desc>
<style>text{font-family:-apple-system,sans-serif}.th{font-size:14px;font-weight:500;fill:#1A1A1A}.ts{font-size:12px;fill:#888880}</style>
<rect x="140" y="20" width="400" height="1100" rx="24" fill="#FFF" stroke="#CCC" stroke-width="1"/>
<text class="ts" x="170" y="48">9:41</text><text class="ts" x="500" y="48" text-anchor="end">100%</text>
<text x="340" y="80" text-anchor="middle" font-size="16" font-weight="500" fill="#1A1A1A" font-family="-apple-system,sans-serif">結果</text>
<rect x="230" y="92" width="220" height="80" rx="12" fill="#F8F8F6" stroke="#CCC" stroke-width="0.5"/>
<text x="340" y="128" text-anchor="middle" font-size="36" font-weight="500" fill="#1A1A1A" font-family="-apple-system,sans-serif">70%</text>
<text class="ts" x="340" y="156" text-anchor="middle">7 / 10 正解</text>
<rect x="175" y="190" width="155" height="34" rx="6" fill="#E6F1FB" stroke="#185FA5" stroke-width="0.5"/>
<text x="252" y="211" text-anchor="middle" font-size="12" font-weight="500" fill="#0C447C" font-family="-apple-system,sans-serif">もう一度</text>
<rect x="350" y="190" width="155" height="34" rx="6" fill="#F1EFE8" stroke="#D3D1C7" stroke-width="0.5"/>
<text x="428" y="211" text-anchor="middle" font-size="12" fill="#5F5E5A" font-family="-apple-system,sans-serif">ホームに戻る</text>
<line x1="175" y1="240" x2="505" y2="240" stroke="#CCC" stroke-width="0.5"/>
<text x="175" y="264" font-size="14" font-weight="500" fill="#1A1A1A" font-family="-apple-system,sans-serif">各問の結果</text>
<rect x="175" y="278" width="330" height="34" rx="6" fill="#EAF3DE" stroke="#3B6D11" stroke-width="0.5"/>
<text x="190" y="299" font-size="12" fill="#27500A" font-family="-apple-system,sans-serif">O Q1: S3バケットのアクセス制...</text>
<text x="492" y="299" text-anchor="end" font-size="12" fill="#27500A" font-family="-apple-system,sans-serif">v</text>
<rect x="175" y="320" width="330" height="34" rx="6" fill="#FCEBEB" stroke="#A32D2D" stroke-width="0.5"/>
<text x="190" y="341" font-size="12" fill="#791F1F" font-family="-apple-system,sans-serif">X Q2: EC2インスタンスのスケ...</text>
<text x="492" y="341" text-anchor="end" font-size="12" fill="#791F1F" font-family="-apple-system,sans-serif">^</text>
<rect x="175" y="358" width="330" height="198" rx="0" fill="#FFF" stroke="#CCC" stroke-width="0.5"/>
<text x="190" y="380" font-size="13" font-weight="500" fill="#1A1A1A" font-family="-apple-system,sans-serif">EC2インスタンスのスケーリングで</text>
<text x="190" y="396" font-size="13" font-weight="500" fill="#1A1A1A" font-family="-apple-system,sans-serif">適切な方法はどれですか？</text>
<text class="ts" x="190" y="420">選択肢:</text>
<rect x="190" y="428" width="300" height="22" rx="3" fill="#EAF3DE" stroke="#3B6D11" stroke-width="0.5"/>
<text x="204" y="443" font-size="12" fill="#27500A" font-family="-apple-system,sans-serif">  Auto Scaling（正解）</text>
<rect x="190" y="454" width="300" height="22" rx="3" fill="#FCEBEB" stroke="#A32D2D" stroke-width="0.5"/>
<text x="204" y="469" font-size="12" fill="#791F1F" font-family="-apple-system,sans-serif">  手動でAMI作成（あなたの回答）</text>
<text x="204" y="494" font-size="12" fill="#888780" font-family="-apple-system,sans-serif">  Lambda関数</text>
<text x="204" y="514" font-size="12" fill="#888780" font-family="-apple-system,sans-serif">  CloudFront配信</text>
<text x="204" y="534" font-size="12" fill="#888780" font-family="-apple-system,sans-serif">  Route 53</text>
<rect x="175" y="566" width="330" height="34" rx="6" fill="#EAF3DE" stroke="#3B6D11" stroke-width="0.5"/>
<text x="190" y="587" font-size="12" fill="#27500A" font-family="-apple-system,sans-serif">O Q3: VPCのサブネット設計で...</text>
<rect x="175" y="608" width="330" height="34" rx="6" fill="#EAF3DE" stroke="#3B6D11" stroke-width="0.5"/>
<text x="190" y="629" font-size="12" fill="#27500A" font-family="-apple-system,sans-serif">O Q4: IAMロールの用途として...</text>
<rect x="175" y="650" width="330" height="34" rx="6" fill="#FCEBEB" stroke="#A32D2D" stroke-width="0.5"/>
<text x="190" y="671" font-size="12" fill="#791F1F" font-family="-apple-system,sans-serif">X Q5: RDSのマルチAZ配置の...</text>
<text class="ts" x="340" y="710" text-anchor="middle">... Q6〜Q10 スクロール</text>
<rect x="210" y="730" width="260" height="76" rx="8" fill="#F8F8F6" stroke="#CCC" stroke-width="0.5"/>
<text x="340" y="752" text-anchor="middle" font-size="12" font-weight="500" fill="#1A1A1A" font-family="-apple-system,sans-serif">凡例</text>
<rect x="228" y="762" width="14" height="14" rx="2" fill="#EAF3DE" stroke="#3B6D11" stroke-width="0.5"/>
<text x="250" y="774" font-size="11" fill="#5F5E5A" font-family="-apple-system,sans-serif">正解の選択肢</text>
<rect x="350" y="762" width="14" height="14" rx="2" fill="#FCEBEB" stroke="#A32D2D" stroke-width="0.5"/>
<text x="372" y="774" font-size="11" fill="#5F5E5A" font-family="-apple-system,sans-serif">不正解の回答</text>
<text x="340" y="796" text-anchor="middle" font-size="11" fill="#888780" font-family="-apple-system,sans-serif">背景なし = その他の選択肢</text>
<rect x="140" y="1048" width="400" height="72" fill="#111"/>
<line x1="140" y1="1048" x2="540" y2="1048" stroke="#222" stroke-width="1"/>
<path d="M225 1072 L225 1068 Q225 1064,229 1064 L241 1064 Q245 1064,245 1068 L245 1072 Z M222 1074 L248 1074 L248 1090 Q248 1094,244 1094 L226 1094 Q222 1094,222 1090 Z" fill="#00E5FF"/>
<text x="235" y="1110" text-anchor="middle" font-size="11" fill="#00E5FF" font-family="-apple-system,sans-serif">ホーム</text>
<circle cx="340" cy="1078" r="10" fill="none" stroke="#666" stroke-width="1.5"/>
<path d="M336 1076 L340 1072 L344 1076 M336 1082 L340 1078 L344 1082" fill="none" stroke="#666" stroke-width="1.2"/>
<text x="340" y="1110" text-anchor="middle" font-size="11" fill="#666" font-family="-apple-system,sans-serif">履歴</text>
<circle cx="445" cy="1080" r="10" fill="none" stroke="#666" stroke-width="1.5"/>
<circle cx="445" cy="1080" r="3" fill="none" stroke="#666" stroke-width="1.2"/>
<text x="445" y="1110" text-anchor="middle" font-size="11" fill="#666" font-family="-apple-system,sans-serif">設定</text>
<text x="340" y="1152" text-anchor="middle" font-size="12" fill="#888880" font-family="-apple-system,sans-serif">S-006 結果画面</text>
</svg>
