<svg width="100%" viewBox="0 0 680 1040" xmlns="http://www.w3.org/2000/svg">
<title>S-001 ホーム画面</title>
<desc>試験一覧・出題数選択（5刻み）・プレイ開始・編集・問題管理・削除。前回正答率は最新プレイのみ表示。全問正解履歴のある試験にはタイトル横に★マーク（問題追加時に消える）。S-004を統合。</desc>
<style>
  text { font-family: -apple-system, BlinkMacSystemFont, "Segoe UI", sans-serif; }
  .th { font-size: 14px; font-weight: 500; fill: #1A1A1A; }
  .ts { font-size: 12px; font-weight: 400; fill: #888880; }
</style>
<rect x="140" y="20" width="400" height="980" rx="24" fill="#FFFFFF" stroke="#CCCCCC" stroke-width="1"/>
<text class="ts" x="170" y="52">9:41</text><text class="ts" x="500" y="52" text-anchor="end">100%</text>
<text x="340" y="86" text-anchor="middle" font-size="16" font-weight="500" fill="#1A1A1A" font-family="-apple-system, sans-serif">AI Quiz Forge</text>

<rect x="250" y="100" width="180" height="40" rx="8" fill="#E6F1FB" stroke="#185FA5" stroke-width="0.5"/>
<text x="340" y="124" text-anchor="middle" font-size="13" font-weight="500" fill="#0C447C" font-family="-apple-system, sans-serif">+ 新しい試験を作成</text>

<text class="ts" x="170" y="168">保存済み試験</text>
<line x1="170" y1="176" x2="510" y2="176" stroke="#CCCCCC" stroke-width="0.5"/>

<!-- Card 1 -->
<rect x="170" y="190" width="340" height="166" rx="8" fill="#F8F8F6" stroke="#CCCCCC" stroke-width="0.5"/>
<text x="186" y="214" font-size="14" font-weight="500" fill="#1A1A1A" font-family="-apple-system, sans-serif">AWS SAA 模擬試験</text>
<text x="296" y="214" font-size="14" fill="#E5A500" font-family="-apple-system, sans-serif">★</text>
<text class="ts" x="186" y="234">全25問 ・ 前回: 84%</text>
<text class="ts" x="186" y="260">出題数（5刻み）</text>
<line x1="230" y1="260" x2="410" y2="260" stroke="#D3D1C7" stroke-width="2" stroke-linecap="round"/>
<circle cx="230" cy="260" r="2" fill="#D3D1C7"/>
<circle cx="275" cy="260" r="2" fill="#D3D1C7"/>
<circle cx="320" cy="260" r="2" fill="#D3D1C7"/>
<circle cx="365" cy="260" r="2" fill="#D3D1C7"/>
<circle cx="410" cy="260" r="2" fill="#D3D1C7"/>
<circle cx="275" cy="260" r="5" fill="#FFFFFF" stroke="#185FA5" stroke-width="1.5"/>
<text x="424" y="264" font-size="13" font-weight="500" fill="#1A1A1A" font-family="-apple-system, sans-serif">10</text>
<text class="ts" x="450" y="264">/ 25</text>
<rect x="370" y="278" width="126" height="28" rx="6" fill="#E1F5EE" stroke="#0F6E56" stroke-width="0.5"/>
<text x="433" y="296" text-anchor="middle" font-size="12" font-weight="500" fill="#085041" font-family="-apple-system, sans-serif">スタート ▶</text>
<line x1="186" y1="316" x2="494" y2="316" stroke="#EEEEEE" stroke-width="0.5"/>
<rect x="186" y="324" width="36" height="20" rx="4" fill="#E6F1FB" stroke="#185FA5" stroke-width="0.5"/>
<text x="204" y="338" text-anchor="middle" font-size="11" fill="#0C447C" font-family="-apple-system, sans-serif">編集</text>
<rect x="228" y="324" width="36" height="20" rx="4" fill="#E6F1FB" stroke="#185FA5" stroke-width="0.5"/>
<text x="246" y="338" text-anchor="middle" font-size="11" fill="#0C447C" font-family="-apple-system, sans-serif">問題</text>
<rect x="270" y="324" width="36" height="20" rx="4" fill="#FCEBEB" stroke="#A32D2D" stroke-width="0.5"/>
<text x="288" y="338" text-anchor="middle" font-size="11" fill="#791F1F" font-family="-apple-system, sans-serif">削除</text>

<!-- Card 2 -->
<rect x="170" y="372" width="340" height="166" rx="8" fill="#F8F8F6" stroke="#CCCCCC" stroke-width="0.5"/>
<text x="186" y="396" font-size="14" font-weight="500" fill="#1A1A1A" font-family="-apple-system, sans-serif">日本史 基礎問題集</text>
<text class="ts" x="186" y="416">全10問 ・ 前回: 70%</text>
<text class="ts" x="186" y="442">出題数（5刻み）</text>
<line x1="230" y1="442" x2="410" y2="442" stroke="#D3D1C7" stroke-width="2" stroke-linecap="round"/>
<circle cx="230" cy="442" r="2" fill="#D3D1C7"/>
<circle cx="410" cy="442" r="2" fill="#D3D1C7"/>
<circle cx="410" cy="442" r="5" fill="#FFFFFF" stroke="#185FA5" stroke-width="1.5"/>
<text x="424" y="446" font-size="13" font-weight="500" fill="#1A1A1A" font-family="-apple-system, sans-serif">10</text>
<text class="ts" x="450" y="446">/ 10</text>
<rect x="370" y="460" width="126" height="28" rx="6" fill="#E1F5EE" stroke="#0F6E56" stroke-width="0.5"/>
<text x="433" y="478" text-anchor="middle" font-size="12" font-weight="500" fill="#085041" font-family="-apple-system, sans-serif">スタート ▶</text>
<line x1="186" y1="498" x2="494" y2="498" stroke="#EEEEEE" stroke-width="0.5"/>
<rect x="186" y="506" width="36" height="20" rx="4" fill="#F1EFE8" stroke="#D3D1C7" stroke-width="0.5"/>
<text x="204" y="520" text-anchor="middle" font-size="11" fill="#5F5E5A" font-family="-apple-system, sans-serif">編集</text>
<rect x="228" y="506" width="36" height="20" rx="4" fill="#F1EFE8" stroke="#D3D1C7" stroke-width="0.5"/>
<text x="246" y="520" text-anchor="middle" font-size="11" fill="#5F5E5A" font-family="-apple-system, sans-serif">問題</text>
<rect x="270" y="506" width="36" height="20" rx="4" fill="#FCEBEB" stroke="#A32D2D" stroke-width="0.5"/>
<text x="288" y="520" text-anchor="middle" font-size="11" fill="#791F1F" font-family="-apple-system, sans-serif">削除</text>

<!-- Card 3 disabled -->
<rect x="170" y="554" width="340" height="100" rx="8" fill="#F1EFE8" stroke="#D3D1C7" stroke-width="0.5" opacity="0.6"/>
<text x="186" y="578" font-size="14" fill="#888780" font-family="-apple-system, sans-serif">数学 微分積分</text>
<text x="186" y="598" font-size="12" fill="#B4B2A9" font-family="-apple-system, sans-serif">0問 ・ 問題を追加してください</text>
<line x1="186" y1="618" x2="494" y2="618" stroke="#EEEEEE" stroke-width="0.5"/>
<rect x="186" y="626" width="36" height="20" rx="4" fill="#F1EFE8" stroke="#D3D1C7" stroke-width="0.5"/>
<text x="204" y="640" text-anchor="middle" font-size="11" fill="#5F5E5A" font-family="-apple-system, sans-serif">編集</text>
<rect x="228" y="626" width="36" height="20" rx="4" fill="#F1EFE8" stroke="#D3D1C7" stroke-width="0.5"/>
<text x="246" y="640" text-anchor="middle" font-size="11" fill="#5F5E5A" font-family="-apple-system, sans-serif">問題</text>
<rect x="270" y="626" width="36" height="20" rx="4" fill="#FCEBEB" stroke="#A32D2D" stroke-width="0.5"/>
<text x="288" y="640" text-anchor="middle" font-size="11" fill="#791F1F" font-family="-apple-system, sans-serif">削除</text>

<!-- Tab bar -->
<rect x="140" y="928" width="400" height="72" rx="0" fill="#111111"/>
<line x1="140" y1="928" x2="540" y2="928" stroke="#222222" stroke-width="1"/>
<path d="M225 952 L225 948 Q225 944,229 944 L241 944 Q245 944,245 948 L245 952 Z M222 954 L248 954 L248 970 Q248 974,244 974 L226 974 Q222 974,222 970 Z" fill="#00E5FF" stroke="none"/>
<text x="235" y="990" text-anchor="middle" font-size="11" fill="#00E5FF" font-family="-apple-system, sans-serif">ホーム</text>
<circle cx="340" cy="958" r="10" fill="none" stroke="#666666" stroke-width="1.5"/>
<path d="M336 956 L340 952 L344 956 M336 962 L340 958 L344 962" fill="none" stroke="#666666" stroke-width="1.2"/>
<text x="340" y="990" text-anchor="middle" font-size="11" fill="#666666" font-family="-apple-system, sans-serif">履歴</text>
<circle cx="445" cy="960" r="10" fill="none" stroke="#666666" stroke-width="1.5"/>
<circle cx="445" cy="960" r="3" fill="none" stroke="#666666" stroke-width="1.2"/>
<text x="445" y="990" text-anchor="middle" font-size="11" fill="#666666" font-family="-apple-system, sans-serif">設定</text>
<text x="340" y="1032" text-anchor="middle" font-size="12" fill="#888880" font-family="-apple-system, sans-serif">S-001 ホーム画面</text>
</svg>
